<svg xmlns="http://www.w3.org/2000/svg" xml:space="preserve" width="512" height="512" viewBox="0 0 512 512"><path d="M256 0C114.609 0 0 114.609 0 256s114.609 256 256 256 256-114.609 256-256S397.391 0 256 0m0 472c-119.297 0-216-96.703-216-216S136.703 40 256 40s216 96.703 216 216-96.703 216-216 216"/><path d="m256 355.219-104.969-65.594L128 304l128 80 128-79.75-23.031-14.438z"/><path d="m256 306.859-104.406-65.25L128 256.359l128 80 128-79.75-23.609-14.812z"/><path d="m128 208 128 80 128-79.75L256 128z"/></svg>