<svg xmlns="http://www.w3.org/2000/svg" xml:space="preserve" width="512" height="512" viewBox="0 0 512 512"><path fill="#1d1d1b" d="M302.188 279.563C313.36 263.875 320 244.727 320 224c0-53.032-42.984-96-96-96-53.017 0-96 42.968-96 96 0 53.016 42.983 96 96 96 20.727 0 39.875-6.64 55.563-17.812l77.124 77.124c6.25 6.252 16.375 6.252 22.624 0 6.252-6.249 6.252-16.374 0-22.623zm-23.235-23.244a64.06 64.06 0 0 1-22.634 22.634C246.805 284.563 235.843 288 224 288c-35.345 0-64-28.656-64-64s28.655-64 64-64 64 28.656 64 64c0 11.843-3.437 22.805-9.047 32.319M256 0C114.609 0 0 114.609 0 256s114.609 256 256 256 256-114.609 256-256S397.391 0 256 0m0 472c-119.298 0-216-96.702-216-216 0-119.297 96.702-216 216-216s216 96.703 216 216c0 119.298-96.702 216-216 216"/></svg>